<?xml version="1.0" encoding="UTF-8" standalone="no"?>
<svg
   xmlns:dc="http://purl.org/dc/elements/1.1/"
   xmlns:cc="http://creativecommons.org/ns#"
   xmlns:rdf="http://www.w3.org/1999/02/22-rdf-syntax-ns#"
   xmlns:svg="http://www.w3.org/2000/svg"
   xmlns="http://www.w3.org/2000/svg"
   viewBox="0 0 377.94666 377.94666"
   height="377.94666"
   width="377.94666"
   xml:space="preserve"
   id="svg2"
   version="1.1"><metadata
     id="metadata8"><rdf:RDF><cc:Work
         rdf:about=""><dc:format>image/svg+xml</dc:format><dc:type
           rdf:resource="http://purl.org/dc/dcmitype/StillImage" /></cc:Work></rdf:RDF></metadata><defs
     id="defs6"><clipPath
       id="clipPath20"
       clipPathUnits="userSpaceOnUse"><path
         id="path18"
         d="M 0,2834.65 V 0 h 2834.64 v 2834.65 z" /></clipPath></defs><g
     transform="matrix(1.3333333,0,0,-1.3333333,0,377.94667)"
     id="g10"><g
       transform="scale(0.1)"
       id="g12"><g
         id="g14"><g
           clip-path="url(#clipPath20)"
           id="g16"><path
             id="path22"
             style="fill:#0f1f47;fill-opacity:1;fill-rule:nonzero;stroke:none"
             d="M 0,0 H 2834.64 V 2834.65 H 0 Z" /><path
             id="path24"
             style="fill:#ffffff;fill-opacity:1;fill-rule:nonzero;stroke:none"
             d="m 385.074,827.289 c -9.433,-9.437 -24.222,-16.84 -46.414,-16.84 -18.097,0 -35.441,5.621 -47.172,17.34 -15.297,15.313 -14.789,34.68 -14.789,51.512 v 104.551 h 22.949 V 876.75 c 0,-13 -0.507,-25.75 9.692,-35.949 6.887,-6.879 17.594,-10.711 30.09,-10.711 12.496,0 21.925,4.34 28.05,10.449 11.473,11.481 10.454,24.481 10.454,53.301 v 90.012 h 22.441 v -86.454 c 0,-31.609 1.016,-53.789 -15.301,-70.109" /><path
             id="path26"
             style="fill:#ffffff;fill-opacity:1;fill-rule:nonzero;stroke:none"
             d="M 564.293,813.77 483.969,949.172 484.477,813.77 H 463.57 v 170.082 h 22.696 l 80.32,-135.911 -0.508,135.911 h 20.91 V 813.77 h -22.695" /><path
             id="path28"
             style="fill:#ffffff;fill-opacity:1;fill-rule:nonzero;stroke:none"
             d="m 655.598,813.77 h 22.9492 V 983.852 H 655.598 Z" /><path
             id="path30"
             style="fill:#ffffff;fill-opacity:1;fill-rule:nonzero;stroke:none"
             d="M 806.086,813.77 H 780.84 l -58.652,170.082 h 23.714 L 794.098,837.23 843.57,983.852 h 22.184 L 806.086,813.77" /><path
             id="path32"
             style="fill:#ffffff;fill-opacity:1;fill-rule:nonzero;stroke:none"
             d="m 910.32,813.77 v 170.082 h 94.1 V 964.98 h -71.654 v -53.539 h 67.314 v -18.363 h -67.314 v -59.93 h 73.694 V 813.77 h -96.14" /><path
             id="path34"
             style="fill:#ffffff;fill-opacity:1;fill-rule:nonzero;stroke:none"
             d="m 1133.83,956.82 c -9.18,9.192 -21.17,8.918 -34.94,8.918 h -17.59 v -60.929 h 7.9 c 16.32,0 32.9,-0.52 43.61,10.191 5.35,5.352 8.41,13.262 8.41,21.43 0,9.179 -3.57,16.57 -7.39,20.39 z m 18.1,-143.05 -19.64,44.371 c -11.72,26.269 -17.33,28.558 -40.28,28.558 H 1081.3 V 813.77 h -22.44 v 170.082 h 37.74 c 22.69,0 40.29,0.25 54.06,-13.524 8.41,-8.398 13.26,-19.629 13.26,-33.898 0,-11.739 -3.32,-21.68 -10.46,-29.328 -6.12,-6.633 -16.06,-12.243 -27.28,-13.512 5.61,-0.262 11.22,-3.578 14.53,-6.891 5.1,-5.109 8.67,-13.258 13.26,-23.719 l 21.93,-49.21 h -23.97" /><path
             id="path36"
             style="fill:#ffffff;fill-opacity:1;fill-rule:nonzero;stroke:none"
             d="m 1263.52,810.199 c -30.09,0 -50.23,16.321 -52.27,18.36 l 10.96,15.812 c 3.06,-2.043 19.64,-14.531 40.29,-14.531 20.91,0 33.15,12.488 33.15,28.039 0,18.621 -20.82,27.801 -39.19,36.723 -21.67,10.457 -40.37,21.679 -40.37,46.668 0,27.031 21.93,45.902 53.3,45.902 31.36,0 46.92,-15.563 48.45,-17.344 l -11.48,-14.789 c -2.04,1.781 -15.55,12.742 -35.44,12.742 -18.62,0 -31.88,-9.172 -31.88,-24.472 0,-16.059 15.05,-22.02 31.88,-30.688 15.04,-7.652 48.45,-19.293 48.45,-52.703 0,-28.039 -20.66,-49.719 -55.85,-49.719" /><path
             id="path38"
             style="fill:#ffffff;fill-opacity:1;fill-rule:nonzero;stroke:none"
             d="m 1373.13,813.77 h 22.9531 V 983.852 H 1373.13 Z" /><path
             id="path40"
             style="fill:#ffffff;fill-opacity:1;fill-rule:nonzero;stroke:none"
             d="M 1513.26,964.98 V 813.77 h -22.95 v 151.21 h -49.98 v 18.872 h 122.66 V 964.98 h -49.73" /><path
             id="path42"
             style="fill:#ffffff;fill-opacity:1;fill-rule:nonzero;stroke:none"
             d="m 1662.02,881.09 v -67.32 h -22.69 v 67.32 l -53.81,102.762 h 25.08 l 41.47,-80.032 40.69,80.032 h 23.06 l -53.8,-102.762" /><path
             id="path44"
             style="fill:#ffffff;fill-opacity:1;fill-rule:nonzero;stroke:none"
             d="m 1905.87,967.781 c -32.38,0 -53.55,-27.281 -53.55,-68.84 0,-41.312 23.72,-68.851 54.83,-68.851 35.44,0 53.8,30.34 53.8,70.379 0,40.551 -22.69,67.312 -55.08,67.312 z m 0.25,-157.332 c -44.87,0 -77.25,36.473 -77.25,87.981 0,52.531 32.13,88.742 78.53,88.742 45.39,0 77.01,-36.211 77.01,-87.473 0,-53.039 -31.87,-89.25 -78.29,-89.25" /><path
             id="path46"
             style="fill:#ffffff;fill-opacity:1;fill-rule:nonzero;stroke:none"
             d="m 2061.5,964.98 v -53.539 h 65.29 V 893.078 H 2061.5 V 813.77 h -22.69 v 170.082 h 92.06 V 964.98 h -69.37" /><path
             id="path48"
             style="fill:#ffffff;fill-opacity:1;fill-rule:nonzero;stroke:none"
             d="m 560.609,477.48 c 0,98.899 -46.992,165.731 -128.027,165.731 -87.871,0 -127.812,-80.859 -127.812,-165.731 0,-98.929 46.953,-166.121 127.812,-166.121 88.008,0 128.027,81.051 128.027,166.121 z m 60.782,2 c 0,-108.929 -83.887,-187.82 -188.809,-187.82 -106.816,0 -188.809,79.899 -188.809,183.809 0,108.84 84.004,187.793 188.809,187.793 106.953,0 188.809,-79.84 188.809,-183.782 v 0" /><path
             id="path50"
             style="fill:#ffffff;fill-opacity:1;fill-rule:nonzero;stroke:none"
             d="m 1713.49,477.48 c 0,98.899 -46.97,165.731 -127.94,165.731 -87.94,0 -127.87,-80.859 -127.87,-165.731 0,-98.929 46.95,-166.121 127.87,-166.121 87.91,0 127.94,81.051 127.94,166.121 z m 60.88,2 c 0,-108.929 -83.92,-187.82 -188.82,-187.82 -106.81,0 -188.81,79.899 -188.81,183.809 0,108.84 83.95,187.793 188.81,187.793 106.87,0 188.82,-79.84 188.82,-183.782 v 0" /><path
             id="path52"
             style="fill:#ffffff;fill-opacity:1;fill-rule:nonzero;stroke:none"
             d="m 2002.21,417.289 c -21,30.09 -29.01,39.141 -54.97,39.141 h -27.01 V 336.379 c 0,-10.039 3,-14.981 14.99,-17.027 l 40.99,-7.993 V 297.25 h -161.8 v 14.109 l 36.92,7.993 c 12.03,3.046 14.92,6.988 14.92,17.027 v 281.699 c 0,10.051 -3.89,15.102 -14.92,17.094 l -36.92,8.039 v 13.988 h 157.79 c 33.02,0 55.96,-2.969 74.95,-10.008 38.92,-14.992 60.88,-52.121 60.88,-86.89 0,-44.063 -32.91,-80.821 -87.89,-93.86 v -2.031 c 11.03,-4.961 16.99,-12.078 55.97,-63.101 l 49.96,-64.93 c 6.96,-10.039 14.99,-17.027 27.91,-19.059 l 34.03,-5.961 V 297.25 h -86.88 c -10.04,0 -15.06,3.051 -24.02,15.129 l -74.9,104.91 z m -81.98,59.199 h 44.95 c 67.94,0 81.97,41.723 81.97,82.793 0,30.739 -13.03,55.84 -44.94,69.86 -17.05,7.019 -33.03,8 -54.97,8 h -27.01 V 476.488" /><path
             id="path54"
             style="fill:#ffffff;fill-opacity:1;fill-rule:nonzero;stroke:none"
             d="m 1297.83,533.238 h 16.98 V 414.219 h -16.98 l -7.03,34.191 c -2.89,12.969 -10.9,18.031 -22.94,18.031 h -86.87 V 336.379 c 0,-10.039 2.99,-14.981 14.91,-17.027 l 41.05,-7.993 V 297.25 h -161.91 v 14.109 l 36.91,7.993 c 12.05,3.046 15.06,6.988 15.06,17.027 v 281.699 c 0,10.051 -4.02,15.102 -15.06,17.094 l -36.91,8.039 v 13.988 h 272.75 V 567.34 h -16.93 l -14.04,50.738 c -4,14.121 -12.03,19.063 -24,19.063 H 1180.99 V 486.52 h 86.87 c 12.04,0 20.05,4.699 22.94,17.64 l 7.03,29.078 v 0" /><path
             id="path56"
             style="fill:#ffffff;fill-opacity:1;fill-rule:nonzero;stroke:none"
             d="m 2321.91,637.141 v -303.68 c 0,-13.09 2.97,-16.141 15.98,-16.141 h 43.95 c 41.93,0 72.91,5.078 94.9,21.078 37,27.063 52.97,73.864 52.97,136.043 0,60.84 -15.97,118.629 -65.94,147.719 -21.07,12.012 -47.97,14.981 -89.94,14.981 h -51.92 z M 2216.97,297.25 v 14.109 l 36.94,7.993 c 12.01,3.046 15.02,6.988 15.02,17.027 v 281.699 c 0,10.051 -4.01,15.102 -15.02,17.094 l -36.94,8.039 v 13.988 h 168.87 c 45.94,0 78.93,-5.929 105.82,-18.027 68.01,-31.121 98.93,-97.934 98.93,-163.703 0,-64.16 -23.89,-123.957 -84.89,-156.117 -27.97,-14.961 -66.91,-22.102 -117.85,-22.102 h -170.88 v 0" /><path
             id="path58"
             style="fill:#ffffff;fill-opacity:1;fill-rule:nonzero;stroke:none"
             d="M 763.34,311.359 V 297.25 H 634.398 v 14.109 l 31.954,6.969 c 11.992,3.07 21.015,6.981 28.066,16.152 l 107.965,137.918 -107.965,145.68 c -7.051,10.051 -16.074,15.102 -27.051,18.082 l -29.902,7.051 v 13.988 h 158.89 v -13.988 l -34.031,-6.07 c -10.937,-1.969 -9.922,-4.942 -3.879,-12.981 l 79.817,-113.012 h 2.031 l 82.871,111.012 c 6.024,8.012 6.024,12.012 -3.008,14 l -31.914,7.051 v 13.988 h 128.808 v -13.988 l -31.894,-7.051 c -12.043,-2.98 -21.074,-7.019 -28.027,-16.031 L 854.336,491.219 969.109,336.379 c 7.024,-10.039 16.047,-14.981 27.082,-18.051 l 29.879,-6.969 V 297.25 H 867.168 v 14.109 l 34.109,5.961 c 10.852,2.032 9.836,5.078 3.977,13.102 l -87.051,121.91 h -1.965 l -88.91,-121.91 c -6.035,-8.024 -6.992,-10.051 3.985,-12.094 l 32.027,-6.969 v 0" /><path
             id="path60"
             style="fill:#ffffff;fill-opacity:1;fill-rule:nonzero;stroke:none"
             d="m 1997.91,2135.2 c 0,20.98 -7.1,37.91 -22.47,46.94 -9.63,5.66 -22.67,7.5 -38.74,7.5 l -116.41,0.02 v -236.09 h 126.74 c 29.34,0 46.59,-6.61 48.1,-32.93 h 2.8 l -0.02,214.56" /><path
             id="path62"
             style="fill:#ffffff;fill-opacity:1;fill-rule:nonzero;stroke:none"
             d="m 2018.21,2135.2 c 0,20.98 7.1,37.91 22.47,46.94 9.63,5.66 22.67,7.5 38.74,7.5 l 117.23,0.02 v -236.09 h -127.56 c -29.33,0 -46.59,-6.61 -48.09,-32.93 h -2.81 l 0.02,214.56" /><path
             id="path64"
             style="fill:#ffffff;fill-opacity:1;fill-rule:nonzero;stroke:none"
             d="m 2222.58,2174.61 c 0,0 0,-234.55 0,-253.06 -17.87,0 -184.25,0 -184.25,0 l -2.52,-6.25 c -3,-7.4 -8.42,-14.25 -27.57,-14.25 -19.14,0 -24.55,6.85 -27.55,14.25 l -2.53,6.25 c 0,0 -165.78,0 -183.66,0 0,18.51 0,253.06 0,253.06 h -20 v -6.54 l -14.02,4.31 c -2.06,6.23 -7.86,10.75 -14.78,10.75 -8.61,0 -15.63,-7 -15.63,-15.63 0,-8.64 7.02,-15.64 15.63,-15.64 3.6,0 6.86,1.26 9.51,3.3 l 19.29,-5.92 v -19.32 l -13.88,2.49 c -2.39,5.07 -7.36,8.71 -13.33,9 -8.62,0.41 -15.95,-6.23 -16.37,-14.86 -0.42,-8.63 6.25,-15.95 14.86,-16.36 4.54,-0.22 8.68,1.55 11.68,4.51 l 17.04,-3.06 v -19.76 l -14.56,0.65 c -2.78,4.32 -7.62,7.2 -13.13,7.2 -8.62,0 -15.64,-7 -15.64,-15.63 0,-8.63 7.02,-15.63 15.64,-15.63 5.01,0 9.42,2.41 12.29,6.08 l 15.4,-0.68 v -21.48 l -15.06,-0.54 c -2.86,3.72 -7.3,6.17 -12.36,6.17 -8.61,0 -15.62,-7 -15.62,-15.63 0,-8.62 7.01,-15.62 15.62,-15.62 5.47,0 10.27,2.83 13.07,7.09 l 14.35,0.52 v -19.79 l -16.63,-2.86 c -2.83,2.84 -6.75,4.59 -11.06,4.59 -8.62,0 -15.64,-7 -15.64,-15.62 0,-8.65 7.02,-15.63 15.64,-15.63 6.21,0 11.54,3.65 14.06,8.91 l 13.63,2.34 v -19.36 l -18.46,-5.64 c -2.64,2.04 -5.91,3.3 -9.51,3.3 -8.62,0 -15.63,-6.99 -15.63,-15.62 0,-8.65 7.01,-15.64 15.63,-15.64 6.91,0 12.71,4.52 14.77,10.74 l 13.2,4.04 v -18.63 l -20.62,-8.9 c -2.56,1.57 -5.59,2.43 -8.8,2.3 -8.61,-0.34 -15.34,-7.62 -14.99,-16.25 0.34,-8.62 7.63,-15.34 16.24,-14.99 7.29,0.28 13.16,5.55 14.61,12.38 l 13.56,5.86 v -18.36 c 0,0 180.82,0 191.34,0 8.12,-13.49 21.82,-20.5 42.4,-20.5 20.59,0 34.3,7.01 42.42,20.5 10.51,0 191.92,0 191.92,0 v 273.06 h -20" /><path
             id="path66"
             style="fill:#ffffff;fill-opacity:1;fill-rule:nonzero;stroke:none"
             d="m 1882.85,2256.72 c -38.53,0 -69.75,-5.99 -69.75,-13.38 0,-7.39 31.22,-13.38 69.75,-13.38 38.51,0 69.74,5.99 69.74,13.38 0,7.39 -31.23,13.38 -69.74,13.38" /><path
             id="path68"
             style="fill:#ffffff;fill-opacity:1;fill-rule:nonzero;stroke:none"
             d="m 1978.89,2343.13 -40.28,-28.31 -0.34,-2.87 9.57,-4.29 c 1.9,-0.95 1.92,-2.47 0.95,-3.39 l -25.29,-21.35 -2.41,0.21 -17.92,26.41 c -1.23,1.72 -0.79,3.42 1.38,3.78 l 12.02,1.97 v 3.03 l -31.17,44.06 h -5.14 l -31.17,-44.06 v -3.03 l 12.03,-1.97 c 2.16,-0.36 2.61,-2.06 1.37,-3.78 l -17.92,-26.41 -2.4,-0.21 -23.63,21.35 c -0.96,0.92 -0.94,2.44 0.94,3.39 l 9.58,4.29 -0.35,2.87 -41.93,28.31 -3.4,-1.34 24.62,-75.24 c 12.5,5.61 41.21,9.57 74.83,9.73 33.63,-0.16 62.34,-4.12 74.84,-9.73 l 24.62,75.24 -3.4,1.34" /><path
             id="path70"
             style="fill:#ffffff;fill-opacity:1;fill-rule:nonzero;stroke:none"
             d="m 2007.95,1752.15 c -38.53,0 -69.76,-5.99 -69.76,-13.37 0,-7.4 31.23,-13.38 69.76,-13.38 38.51,0 69.75,5.98 69.75,13.38 0,7.38 -31.24,13.37 -69.75,13.37" /><path
             id="path72"
             style="fill:#ffffff;fill-opacity:1;fill-rule:nonzero;stroke:none"
             d="m 2103.99,1838.56 -40.27,-28.3 -0.34,-2.87 9.57,-4.3 c 1.89,-0.94 1.91,-2.47 0.95,-3.39 l -25.31,-21.35 -2.39,0.22 -17.92,26.41 c -1.23,1.71 -0.79,3.42 1.37,3.78 l 12.03,1.96 v 3.03 l -31.18,44.06 h -5.13 l -31.17,-44.06 v -3.03 l 12.03,-1.96 c 2.15,-0.36 2.6,-2.07 1.37,-3.78 l -17.93,-26.41 -2.4,-0.22 -23.62,21.35 c -0.96,0.92 -0.94,2.45 0.94,3.39 l 9.58,4.3 -0.35,2.87 -41.94,28.3 -3.4,-1.33 24.63,-75.25 c 12.5,5.62 41.21,9.57 74.82,9.73 33.62,-0.16 62.33,-4.11 74.83,-9.73 l 24.63,75.25 -3.4,1.33" /><path
             id="path74"
             style="fill:#ffffff;fill-opacity:1;fill-rule:nonzero;stroke:none"
             d="m 2132.75,2256.72 c -38.53,0 -69.76,-5.99 -69.76,-13.38 0,-7.39 31.23,-13.38 69.76,-13.38 38.51,0 69.74,5.99 69.74,13.38 0,7.39 -31.23,13.38 -69.74,13.38" /><path
             id="path76"
             style="fill:#ffffff;fill-opacity:1;fill-rule:nonzero;stroke:none"
             d="m 2228.79,2343.13 -40.27,-28.31 -0.35,-2.87 9.57,-4.29 c 1.9,-0.95 1.92,-2.47 0.95,-3.39 l -25.29,-21.35 -2.4,0.21 -17.92,26.41 c -1.23,1.72 -0.79,3.42 1.36,3.78 l 12.03,1.97 v 3.03 l -31.18,44.06 h -5.12 l -31.18,-44.06 v -3.03 l 12.04,-1.97 c 2.15,-0.36 2.6,-2.06 1.36,-3.78 l -17.92,-26.41 -2.4,-0.21 -23.62,21.63 c -0.97,0.91 -0.95,2.44 0.93,3.39 l 9.58,4.01 -0.35,2.87 -41.94,28.31 -3.39,-1.34 24.62,-75.24 c 12.5,5.61 41.21,9.57 74.83,9.73 33.62,-0.16 62.33,-4.12 74.83,-9.73 l 24.63,75.24 -3.4,1.34" /><path
             id="path78"
             style="fill:#ffffff;fill-opacity:1;fill-rule:nonzero;stroke:none"
             d="m 2021.71,2545.67 c 0,-7.9 -6.41,-14.3 -14.31,-14.3 -7.9,0 -14.3,6.4 -14.3,14.3 0,7.9 6.4,14.3 14.3,14.3 7.9,0 14.31,-6.4 14.31,-14.3" /><path
             id="path80"
             style="fill:#ffffff;fill-opacity:1;fill-rule:nonzero;stroke:none"
             d="m 2355.73,2412.31 c -0.41,-7.9 -7.15,-13.96 -15.04,-13.53 -7.89,0.4 -13.94,7.12 -13.54,15.02 0.4,7.87 7.15,13.94 15.02,13.52 7.89,-0.39 13.96,-7.13 13.56,-15.01" /><path
             id="path82"
             style="fill:#0f1f47;fill-opacity:1;fill-rule:nonzero;stroke:none"
             d="m 1847.4,2127.75 c 0,-4.62 1.14,-5.51 3.64,-5.51 4.48,0 9.01,4.94 9.01,14.16 0,11.19 -5.67,14.31 -10.1,14.31 -1.2,0 -1.87,-0.16 -2.24,-0.36 -0.26,-0.1 -0.31,-1.3 -0.31,-2.6 z m 2.55,25.57 c 6.41,0 11.71,-1.25 15.2,-4.63 2.45,-2.35 4.48,-6.2 4.48,-10.67 0,-12.97 -9.84,-18.54 -21.87,-18.54 h -13.42 v 2.02 c 3.79,0.33 4.2,0.69 4.2,6.31 v 17.18 c 0,5.62 -0.41,5.99 -3.79,6.3 v 2.03 h 15.2" /><path
             id="path84"
             style="fill:#0f1f47;fill-opacity:1;fill-rule:nonzero;stroke:none"
             d="m 1883.84,2137.71 c 0,-9.43 3.53,-16.3 8.63,-16.3 4.48,0 6.92,4.32 6.92,13.74 0,10.46 -3.74,16.24 -8.22,16.24 -4,0 -7.33,-4.58 -7.33,-13.68 z m 25.24,-0.9 c 0,-11.14 -7.61,-18.11 -17.59,-18.11 -10.51,0 -17.33,7.66 -17.33,17.23 0,8.44 5.62,18.17 18.06,18.17 9.52,0 16.86,-6.98 16.86,-17.29" /><path
             id="path86"
             style="fill:#0f1f47;fill-opacity:1;fill-rule:nonzero;stroke:none"
             d="m 1955.05,2153.32 v -2.03 c -3.96,-0.37 -4.17,-0.58 -4.01,-6.04 l 0.52,-17.44 c 0.15,-5.78 0.26,-5.93 4.01,-6.31 v -2.02 h -16.29 v 2.02 c 3.89,0.38 4.06,0.53 4,6.31 l -0.15,18.32 h -0.22 l -10.04,-26.08 h -2.81 l -9.52,24.26 h -0.11 l -0.36,-11.56 c -0.17,-4.47 -0.11,-6.97 0.1,-8.58 0.2,-1.93 1.35,-2.4 4.73,-2.67 v -2.02 h -12.85 v 2.02 c 2.5,0.22 3.49,0.74 3.8,2.67 0.26,1.61 0.57,4.37 0.83,9.11 l 0.58,10.51 c 0.36,6.56 -0.05,7.13 -4.17,7.5 v 2.03 h 12.23 l 9.11,-20.61 7.97,20.61 h 12.65" /><path
             id="path88"
             style="fill:#0f1f47;fill-opacity:1;fill-rule:nonzero;stroke:none"
             d="m 1971.95,2127.81 c 0,-5.62 0.42,-5.98 4.02,-6.31 v -2.02 h -16.87 v 2.02 c 3.6,0.33 4.01,0.69 4.01,6.31 v 17.18 c 0,5.62 -0.41,5.99 -4.01,6.3 v 2.03 h 16.87 v -2.03 c -3.6,-0.31 -4.02,-0.68 -4.02,-6.3 v -17.18" /><path
             id="path90"
             style="fill:#0f1f47;fill-opacity:1;fill-rule:nonzero;stroke:none"
             d="m 1888.13,2056.65 h -4.49 l -19.25,24.58 h -0.11 v -9.58 c 0,-5.47 0.21,-8.33 0.43,-9.94 0.26,-1.83 1.66,-2.5 5.09,-2.66 v -2.03 h -12.96 v 2.03 c 2.29,0.11 3.64,0.83 3.9,2.66 0.21,1.61 0.41,4.47 0.41,9.94 v 9.58 c 0,3.84 -0.1,4.53 -1.14,5.98 -0.78,1.1 -2.08,1.45 -3.95,1.61 v 2.04 h 11.51 l 17.32,-21.61 h 0.11 v 6.98 c 0,5.47 -0.21,8.33 -0.41,9.94 -0.26,1.81 -1.67,2.49 -5.11,2.65 v 2.04 h 13.27 v -2.04 c -2.59,-0.1 -3.95,-0.84 -4.21,-2.65 -0.2,-1.61 -0.41,-4.47 -0.41,-9.94 v -19.58" /><path
             id="path92"
             style="fill:#0f1f47;fill-opacity:1;fill-rule:nonzero;stroke:none"
             d="m 1909.21,2056.65 c -3.59,9.37 -8.49,22.23 -10.36,27.13 -1.71,4.47 -2.76,4.73 -5.26,5.04 v 2.04 h 16.82 v -2.04 l -1.78,-0.2 c -1.92,-0.21 -1.92,-0.68 -1.34,-2.51 0.93,-2.91 5.04,-13.17 6.97,-18.27 1.62,4.43 4.94,14.37 5.78,16.82 1.08,3.18 0.78,3.75 -1.56,4 l -1.57,0.16 v 2.04 h 12.6 v -2.04 c -2.98,-0.37 -3.7,-0.62 -5.73,-5.36 -0.31,-0.73 -6.66,-16.19 -10.56,-26.81 h -4.01" /><path
             id="path94"
             style="fill:#0f1f47;fill-opacity:1;fill-rule:nonzero;stroke:none"
             d="m 1932.69,2067.74 c 1.09,-3.02 4.17,-8.8 9.26,-8.8 2.71,0 4.79,1.77 4.79,5.16 0,3.06 -2.02,4.78 -5.21,6.24 l -0.77,0.37 c -4.27,1.98 -9.11,4.68 -9.11,10.25 0,5.88 4.27,10.68 12.43,10.68 1.61,0 3.28,-0.21 4.8,-0.63 1.19,-0.31 2.02,-0.51 2.7,-0.74 0.21,-2.02 0.57,-4.57 1.14,-8.11 l -2.29,-0.36 c -1.14,3.43 -2.96,7.13 -7.08,7.13 -2.65,0 -4.52,-2.03 -4.52,-4.54 0,-2.59 2.03,-4.1 5.36,-5.61 l 1.14,-0.53 c 4.8,-2.18 8.9,-4.84 8.9,-10.93 0,-6.39 -5.15,-11.08 -13.21,-11.08 -2.08,0 -4.22,0.41 -5.63,0.88 -1.55,0.53 -2.66,0.94 -3.27,1.25 -0.42,2.4 -1.1,5.2 -1.73,8.69 l 2.3,0.68" /><path
             id="path96"
             style="fill:#0f1f47;fill-opacity:1;fill-rule:nonzero;stroke:none"
             d="m 1864.97,2002.88 c 0,-5.61 0.42,-5.98 4.01,-6.3 v -2.02 h -16.86 v 2.02 c 3.58,0.32 4,0.69 4,6.3 v 17.19 c 0,5.61 -0.42,5.98 -4,6.29 v 2.03 h 16.86 v -2.03 c -3.59,-0.31 -4.01,-0.68 -4.01,-6.29 v -17.19" /><path
             id="path98"
             style="fill:#0f1f47;fill-opacity:1;fill-rule:nonzero;stroke:none"
             d="m 1885.59,2002.21 c 0,-2.71 0.1,-4.01 1.04,-4.48 0.83,-0.42 2.03,-0.46 3.64,-0.46 1.67,0 3.91,0.14 5,1.51 0.83,0.98 1.71,2.38 2.55,5.15 l 2.24,-0.38 c -0.31,-1.97 -1.41,-7.38 -1.88,-8.99 h -25.82 v 2.02 c 3.96,0.32 4.38,0.69 4.38,6.3 v 17.19 c 0,5.61 -0.42,5.98 -3.91,6.29 v 2.03 h 16.93 v -2.03 c -3.75,-0.31 -4.17,-0.68 -4.17,-6.29 v -17.86" /><path
             id="path100"
             style="fill:#0f1f47;fill-opacity:1;fill-rule:nonzero;stroke:none"
             d="m 1914.64,2002.21 c 0,-2.71 0.1,-4.01 1.04,-4.48 0.83,-0.42 2.03,-0.46 3.64,-0.46 1.67,0 3.9,0.14 5,1.51 0.83,0.98 1.71,2.38 2.55,5.15 l 2.23,-0.38 c -0.3,-1.97 -1.4,-7.38 -1.87,-8.99 h -25.82 v 2.02 c 3.96,0.32 4.37,0.69 4.37,6.3 v 17.19 c 0,5.61 -0.41,5.98 -3.9,6.29 v 2.03 h 16.92 v -2.03 c -3.75,-0.31 -4.16,-0.68 -4.16,-6.29 v -17.86" /><path
             id="path102"
             style="fill:#0f1f47;fill-opacity:1;fill-rule:nonzero;stroke:none"
             d="m 1939.51,1994.19 c -3.59,9.36 -8.48,22.23 -10.36,27.13 -1.72,4.46 -2.75,4.73 -5.26,5.04 v 2.03 h 16.82 v -2.03 l -1.77,-0.21 c -1.93,-0.2 -1.93,-0.67 -1.35,-2.5 0.94,-2.91 5.05,-13.17 6.97,-18.27 1.61,4.42 4.94,14.37 5.78,16.82 1.09,3.17 0.77,3.75 -1.57,4 l -1.55,0.16 v 2.03 h 12.59 v -2.03 c -2.96,-0.36 -3.69,-0.63 -5.73,-5.37 -0.31,-0.72 -6.66,-16.19 -10.55,-26.8 h -4.02" /><path
             id="path104"
             style="fill:#0f1f47;fill-opacity:1;fill-rule:nonzero;stroke:none"
             d="m 2083.28,2152.19 v -2.04 c -3.96,-0.36 -4.17,-0.57 -4.01,-6.04 l 0.52,-17.43 c 0.15,-5.78 0.25,-5.94 4,-6.3 v -2.03 h -16.28 v 2.03 c 3.9,0.36 4.06,0.52 4,6.3 l -0.15,18.32 h -0.22 l -10.05,-26.08 h -2.8 l -9.52,24.26 h -0.11 l -0.36,-11.56 c -0.17,-4.48 -0.11,-6.97 0.1,-8.58 0.2,-1.93 1.36,-2.4 4.73,-2.66 v -2.03 h -12.86 v 2.03 c 2.51,0.21 3.5,0.73 3.8,2.66 0.27,1.61 0.58,4.37 0.84,9.1 l 0.58,10.52 c 0.36,6.55 -0.05,7.13 -4.17,7.49 v 2.04 h 12.22 l 9.13,-20.62 7.96,20.62 h 12.65" /><path
             id="path106"
             style="fill:#0f1f47;fill-opacity:1;fill-rule:nonzero;stroke:none"
             d="m 2100.19,2126.68 c 0,-5.63 0.42,-5.98 4,-6.3 v -2.03 h -16.86 v 2.03 c 3.6,0.32 4.01,0.67 4.01,6.3 v 17.18 c 0,5.62 -0.41,5.98 -4.01,6.29 v 2.04 h 16.86 v -2.04 c -3.58,-0.31 -4,-0.67 -4,-6.29 v -17.18" /><path
             id="path108"
             style="fill:#0f1f47;fill-opacity:1;fill-rule:nonzero;stroke:none"
             d="m 2138.92,2117.98 h -4.48 l -19.25,24.58 h -0.11 v -9.58 c 0,-5.46 0.21,-8.33 0.42,-9.94 0.26,-1.83 1.66,-2.5 5.1,-2.66 v -2.03 h -12.96 v 2.03 c 2.28,0.11 3.64,0.83 3.89,2.66 0.22,1.61 0.42,4.48 0.42,9.94 v 9.58 c 0,3.84 -0.1,4.53 -1.14,5.98 -0.78,1.1 -2.09,1.46 -3.95,1.61 v 2.04 h 11.5 l 17.33,-21.61 h 0.1 v 6.98 c 0,5.47 -0.2,8.33 -0.41,9.94 -0.26,1.82 -1.67,2.5 -5.11,2.65 v 2.04 h 13.28 v -2.04 c -2.59,-0.1 -3.96,-0.83 -4.21,-2.65 -0.21,-1.61 -0.42,-4.47 -0.42,-9.94 v -19.58" /><path
             id="path110"
             style="fill:#0f1f47;fill-opacity:1;fill-rule:nonzero;stroke:none"
             d="m 2154.06,2131.68 h 6.67 l -3.28,9.95 h -0.16 z m 6.61,-11.3 1.58,0.21 c 1.92,0.25 2.02,0.78 1.34,2.65 l -1.87,5.31 h -8.55 l -1.56,-5 c -0.67,-2.24 -0.67,-2.75 1.72,-3.01 l 1.5,-0.16 v -2.03 h -12.12 v 2.03 c 2.66,0.36 3.44,0.58 5.16,4.95 l 10.41,26.9 3.6,0.73 3.53,-9.83 c 2.25,-6.2 4.47,-12.34 6.46,-17.65 1.67,-4.52 2.6,-4.78 5.15,-5.1 v -2.03 h -16.35 v 2.03" /><path
             id="path112"
             style="fill:#0f1f47;fill-opacity:1;fill-rule:nonzero;stroke:none"
             d="m 2082.86,2064.21 c 0,-5.61 0.42,-5.98 4.79,-6.3 v -2.02 h -18.22 v 2.02 c 4.17,0.32 4.58,0.69 4.58,6.3 v 22.81 h -0.88 c -3.48,0 -4.9,-0.64 -5.73,-1.57 -0.61,-0.77 -1.25,-2.13 -1.92,-5.05 h -2.19 c 0.21,4.37 0.52,7.97 0.63,10.62 h 1.61 c 0.78,-1.19 1.3,-1.3 2.7,-1.3 H 2089 c 1.36,0 1.62,0.32 2.45,1.3 h 1.62 c 0.05,-2.18 0.31,-6.61 0.56,-10.46 l -2.28,-0.16 c -0.78,3.12 -1.35,4.48 -2.13,5.37 -0.9,0.94 -2.61,1.25 -5.11,1.25 h -1.25 v -22.81" /><path
             id="path114"
             style="fill:#0f1f47;fill-opacity:1;fill-rule:nonzero;stroke:none"
             d="m 2110.12,2064.21 c 0,-5.61 0.42,-5.98 4.01,-6.3 v -2.02 h -16.86 v 2.02 c 3.59,0.32 4,0.69 4,6.3 v 17.18 c 0,5.63 -0.41,5.99 -4,6.3 v 2.03 h 16.86 v -2.03 c -3.59,-0.31 -4.01,-0.67 -4.01,-6.3 v -17.18" /><path
             id="path116"
             style="fill:#0f1f47;fill-opacity:1;fill-rule:nonzero;stroke:none"
             d="m 2128.15,2074.11 c 0,-9.43 3.54,-16.3 8.65,-16.3 4.48,0 6.92,4.33 6.92,13.74 0,10.47 -3.74,16.25 -8.23,16.25 -4.01,0 -7.34,-4.58 -7.34,-13.69 z m 25.25,-0.9 c 0,-11.13 -7.6,-18.1 -17.59,-18.1 -10.52,0 -17.33,7.65 -17.33,17.23 0,8.43 5.61,18.16 18.05,18.16 9.53,0 16.87,-6.98 16.87,-17.29" /><path
             id="path118"
             style="fill:#0f1f47;fill-opacity:1;fill-rule:nonzero;stroke:none"
             d="m 2098.23,2027.26 v -2.03 c -3.95,-0.37 -4.17,-0.58 -4.01,-6.04 l 0.53,-17.44 c 0.14,-5.78 0.25,-5.94 4,-6.3 v -2.02 h -16.3 v 2.02 c 3.91,0.36 4.06,0.52 4.01,6.3 l -0.15,18.33 h -0.22 L 2076.04,1994 h -2.8 l -9.53,24.25 h -0.1 l -0.37,-11.56 c -0.15,-4.47 -0.1,-6.96 0.11,-8.58 0.2,-1.93 1.35,-2.4 4.74,-2.66 v -2.02 h -12.87 v 2.02 c 2.51,0.21 3.49,0.73 3.8,2.66 0.27,1.62 0.58,4.37 0.83,9.11 l 0.58,10.51 c 0.37,6.56 -0.05,7.13 -4.16,7.5 v 2.03 h 12.24 l 9.11,-20.61 7.96,20.61 h 12.65" /><path
             id="path120"
             style="fill:#0f1f47;fill-opacity:1;fill-rule:nonzero;stroke:none"
             d="m 2106.28,2018.93 c 0,5.62 -0.41,5.98 -3.9,6.3 v 2.03 h 24.68 c 0.05,-0.89 0.31,-4.69 0.57,-8.59 l -2.29,-0.16 c -0.53,2.55 -1.09,4.01 -1.93,4.84 -0.82,0.89 -2.55,1.2 -5.3,1.2 h -0.88 c -1.99,0 -2.09,0 -2.09,-1.82 v -10.04 h 2.6 c 4.48,0 4.63,0.31 5.16,4.26 h 2.29 v -12.28 h -2.29 c -0.53,4.58 -0.68,4.89 -5.16,4.89 h -2.6 v -8.49 c 0,-2.7 0.1,-4 1.04,-4.47 0.84,-0.42 2.03,-0.47 3.64,-0.47 2.08,0 4.38,0.31 5.52,1.56 0.88,0.94 1.77,2.86 2.55,5.37 l 2.3,-0.37 c -0.27,-2.55 -1.36,-7.86 -1.83,-9.26 h -26.49 v 2.02 c 4,0.32 4.41,0.68 4.41,6.3 v 17.18" /><path
             id="path122"
             style="fill:#0f1f47;fill-opacity:1;fill-rule:nonzero;stroke:none"
             d="m 2141.85,2006.75 h 6.66 l -3.29,9.94 h -0.15 z m 6.61,-11.3 1.56,0.21 c 1.92,0.26 2.02,0.78 1.35,2.66 l -1.88,5.31 h -8.53 l -1.57,-5 c -0.67,-2.24 -0.67,-2.76 1.72,-3.02 l 1.51,-0.16 v -2.02 h -12.13 v 2.02 c 2.65,0.36 3.45,0.58 5.16,4.95 l 10.41,26.9 3.59,0.74 3.53,-9.84 c 2.25,-6.2 4.49,-12.34 6.46,-17.65 1.67,-4.52 2.62,-4.78 5.16,-5.1 v -2.02 h -16.34 v 2.02" /><path
             id="path124"
             style="fill:#ffffff;fill-opacity:1;fill-rule:nonzero;stroke:none"
             d="m 1960.46,1564.86 c 0,-7.91 -6.41,-14.31 -14.31,-14.31 -7.9,0 -14.3,6.4 -14.3,14.31 0,7.91 6.4,14.31 14.3,14.31 7.9,0 14.31,-6.4 14.31,-14.31" /><path
             id="path126"
             style="fill:#ffffff;fill-opacity:1;fill-rule:nonzero;stroke:none"
             d="m 2101.34,1541.75 c 0,-7.9 -6.41,-14.31 -14.31,-14.31 -7.9,0 -14.31,6.41 -14.31,14.31 0,7.9 6.41,14.3 14.31,14.3 7.9,0 14.31,-6.4 14.31,-14.3" /><path
             id="path128"
             style="fill:#ffffff;fill-opacity:1;fill-rule:nonzero;stroke:none"
             d="m 1561.1,2322.39 v 0 0 z" /><path
             id="path130"
             style="fill:#ffffff;fill-opacity:1;fill-rule:nonzero;stroke:none"
             d="m 2117.99,2479.17 v 0 0 z" /><path
             id="path132"
             style="fill:#ffffff;fill-opacity:1;fill-rule:nonzero;stroke:none"
             d="m 2144.8,2573.45 v 0 0 z" /><path
             id="path134"
             style="fill:#ffffff;fill-opacity:1;fill-rule:nonzero;stroke:none"
             d="m 2368.97,2297.41 v 0 0 z" /><path
             id="path136"
             style="fill:#ffffff;fill-opacity:1;fill-rule:nonzero;stroke:none"
             d="m 2526.03,1986.9 v 0 0 z" /><path
             id="path138"
             style="fill:#ffffff;fill-opacity:1;fill-rule:nonzero;stroke:none"
             d="m 2476.98,1845.64 v 0 0 z" /><path
             id="path140"
             style="fill:#ffffff;fill-opacity:1;fill-rule:nonzero;stroke:none"
             d="m 1624.88,1834.37 c 4.9,-0.03 18.75,-1.37 30.47,-18.04 4.83,-6.86 8.24,-14.95 8.23,-23.41 -0.03,-14.01 -6.85,-22.11 -23.28,-33.67 l -43.59,-30.76 -11.87,16.87 48.82,34.44 c 4.52,3.18 10.54,8.4 10.56,15.09 0,3.7 -0.5,6.69 -3.84,11.45 -5.17,7.36 -10.6,7.99 -14.04,7.99 -5.18,0.01 -10.08,-3.12 -20.57,-10.5 l -42.3,-27.58 -11.53,16.39 44.93,29.4 c 11.86,8.36 19.52,12.37 28.01,12.33" /><path
             id="path142"
             style="fill:#ffffff;fill-opacity:1;fill-rule:nonzero;stroke:none"
             d="m 1547.25,1874.22 59.67,23.43 6.44,-16.74 -90.1,-34.93 -6.38,17.46 46.63,59.36 -60.11,-21 -6.43,17.59 90.93,31.79 6.03,-16.5 -46.68,-60.46" /><path
             id="path144"
             style="fill:#ffffff;fill-opacity:1;fill-rule:nonzero;stroke:none"
             d="m 1482.49,1994.08 95.7,14.56 3.11,-20.38 -95.71,-14.55 -3.1,20.37" /><path
             id="path146"
             style="fill:#ffffff;fill-opacity:1;fill-rule:nonzero;stroke:none"
             d="m 1574.78,2072.18 -98.15,-29.41 0.87,20.75 73.63,19.84 -71.67,26.4 0.85,20.17 95.32,-37.73 -0.85,-20.02" /><path
             id="path148"
             style="fill:#ffffff;fill-opacity:1;fill-rule:nonzero;stroke:none"
             d="m 1490.58,2182.33 16.05,56.4 15.91,-4.52 -10.48,-36.87 21.63,-6.15 9.85,34.62 15.64,-4.44 -9.85,-34.62 23.73,-6.76 10.8,37.97 16.2,-4.6 -16.37,-57.52 -93.11,26.49" /><path
             id="path150"
             style="fill:#ffffff;fill-opacity:1;fill-rule:nonzero;stroke:none"
             d="m 1566.94,2320.25 c -4.93,-1.39 -7.49,-5.21 -11.17,-11.8 l -3.18,-5.49 23.48,-12.65 3.96,7.1 c 3.33,5.96 4.06,9.37 2.89,13.51 -0.9,3.17 -3.87,6.48 -6.78,8.11 -3.43,1.9 -6.82,1.9 -9.2,1.22 z m 71.47,-29.32 -28.67,2.54 c -13.59,1.26 -14.9,-1.99 -18.72,-8.84 l -1.14,-2.02 34.04,-18.1 -10.11,-17.91 -85.12,46.6 13.96,24.49 c 6.3,11.29 12.99,23.28 30.04,23.28 10.69,0 25.57,-8.99 25.57,-25.15 0,-2.87 -0.69,-5.91 -1.89,-9.08 3.83,5.52 10.76,6.34 17.06,6.27 3.5,-0.03 6.92,-0.55 9.76,-0.8 l 25.83,-2.27 -10.61,-19.01" /><path
             id="path152"
             style="fill:#ffffff;fill-opacity:1;fill-rule:nonzero;stroke:none"
             d="m 1681.29,2481.55 16.46,12.4 58.26,-77.31 -16.45,-12.41 -58.27,77.32" /><path
             id="path154"
             style="fill:#ffffff;fill-opacity:1;fill-rule:nonzero;stroke:none"
             d="m 1789.93,2529.54 36.78,-71.34 -18.31,-9.44 -36.79,71.33 -23.6,-12.17 -7.59,14.71 65.42,33.72 7.57,-14.71 -23.48,-12.1" /><path
             id="path156"
             style="fill:#ffffff;fill-opacity:1;fill-rule:nonzero;stroke:none"
             d="m 1903.23,2524.37 9.34,-37.46 -19.15,-4.78 -9.34,37.47 -43.65,49.11 20.28,5.06 28.87,-33.78 9.72,43.46 19.44,4.76 -15.51,-63.84" /><path
             id="path158"
             style="fill:#ffffff;fill-opacity:1;fill-rule:nonzero;stroke:none"
             d="m 2253.66,2489.6 30.56,-18.2 -8.31,-13.97 -30.56,18.19 -21.24,-35.67 -17.46,10.4 49.53,83.19 49.63,-29.56 -8.47,-14.21 -32.16,19.15 -11.52,-19.32" /><path
             id="path160"
             style="fill:#ffffff;fill-opacity:1;fill-rule:nonzero;stroke:none"
             d="m 2427.66,2175.07 26.46,29.13 -38.45,9.09 -6.33,20.22 57.15,-14.93 35.83,41.94 6.65,-21.19 -24.59,-26.85 35.7,-8.6 6.2,-19.81 -53.13,14.23 -38.9,-44.28 -6.59,21.05 v 0" /><path
             id="path162"
             style="fill:#ffffff;fill-opacity:1;fill-rule:nonzero;stroke:none"
             d="m 2520.26,2106.06 -22.46,-1.81 2.39,-35.76 -16.23,-1.08 -2.38,35.47 -41.42,-2.79 -1.38,19.45 96.63,7.91 3.87,-58.22 -16.52,-1.1 -2.5,37.93 v 0" /><path
             id="path164"
             style="fill:#ffffff;fill-opacity:1;fill-rule:nonzero;stroke:none"
             d="m 2345.97,1617.2 c -92.84,-32.72 -179.53,-30.64 -253.68,-14.29 2.37,31.75 14.18,66.93 33.75,72.22 166.76,50.57 288.5,205.41 288.5,388.13 0,223.65 -182.33,405.6 -406.44,405.6 -224.13,0 -406.46,-181.95 -406.46,-405.6 0,-122.15 55.97,-238.36 150.6,-315.07 -22.17,-10.67 -41.1,-26.95 -55.03,-46.92 -6.67,4.63 -13.09,9.42 -19.08,14.35 l -3.79,-3.81 c 4.12,-4.98 10.22,-11.36 17.65,-18.56 -12.69,-21.1 -20.08,-45.72 -20.08,-72.08 0,-1.81 0.21,-3.57 0.28,-5.37 -141.88,106.66 -225.21,273.77 -223.75,452.01 1.26,155.04 64.37,298.74 177.73,404.6 105.21,98.26 242.45,151.73 386.47,150.57 308.6,-2.5 557.63,-255.63 555.12,-564.26 -1.42,-175.27 -82.23,-335.71 -221.79,-441.52 z m -324.56,-132.23 c -77.28,0 -173.72,26.27 -239.99,65.36 -19.79,11.68 -43.38,33.37 -43.38,70.43 0,9.63 1.83,18.81 5.06,27.31 25.03,-20.6 50.68,-39.75 66.89,-48.63 3.82,-2.1 6.02,-3.12 10.46,-3.12 10.63,0 19.27,8.66 19.27,19.35 0,8.16 -4.44,14.79 -11.75,17.98 -13.9,6.08 -42.71,18.01 -73.94,34.08 14.04,18.29 35.98,30.15 60.69,30.15 11.35,0 22.3,-2.44 32.51,-7.26 l 21.09,-12.3 c 67.07,-40.96 238.46,-145.61 446.17,-91.26 -78.45,-68.52 -174.7,-102.09 -293.08,-102.09 z m 64.09,-48.88 c -22.25,0 -38.75,-17.34 -38.75,-38.77 0,-24.99 17.49,-40.03 40.03,-40.03 2.8,0 5.52,0.31 8.16,0.87 -6.71,-31.15 -43.53,-64.89 -87.91,-79.98 -43.59,15.09 -81.01,48.83 -87.73,79.98 2.63,-0.56 5.37,-0.87 8.17,-0.87 22.54,0 40.02,15.04 40.02,40.03 0,21.43 -16.49,38.77 -38.74,38.77 5.61,10.3 11.95,23.01 16.66,36.34 26.19,-4.5 51.97,-6.95 76,-6.95 19.36,0 38.2,1 56.61,2.81 2.48,-9.47 8.45,-27.63 10.04,-32.37 -0.8,0.09 -1.62,0.17 -2.56,0.17 z m -271.83,306.74 c 40.61,0 78.62,-20.84 100.91,-54.23 -19.6,4.88 -38.85,11.28 -57.61,19.28 l -0.06,-0.12 -0.54,0.32 c -13.08,6.16 -27.09,9.29 -41.65,9.29 -32.34,0 -60.96,-15.83 -78.65,-40.04 -7.4,4.12 -14.79,8.44 -22.05,12.95 21.9,31.71 58.37,52.55 99.65,52.55 z m 153.35,-83.14 c -3.19,-2.81 -5.86,-5.99 -8.03,-9.4 -12.39,5.25 -36.28,16.42 -44.05,21.08 12.26,-3.95 39.66,-10.44 52.08,-11.68 z m 123.43,6.35 c -10,-16.12 -16.13,-37.07 -18.26,-58.29 -35.33,9.25 -67.46,21.48 -95.64,34.26 3.9,8.16 13.05,15.72 28.64,15.72 0.97,0 1.93,-0.07 2.91,-0.07 28.2,0 55.75,2.89 82.35,8.38 z m -82.35,11.11 c -22.68,0 -45.02,2.05 -66.98,5.89 -23.65,48.19 -73.54,79.29 -127.45,79.29 -13.82,0 -27.15,-2.07 -39.78,-5.76 -95.1,72.86 -151.71,186.71 -151.71,306.69 0,212.9 173.12,386.11 385.92,386.11 212.79,0 385.9,-173.21 385.9,-386.11 0,-212.9 -173.11,-386.11 -385.9,-386.11 z m -194.43,-177.63 c -66.84,0 -121.22,54.57 -121.22,121.65 0,20.97 5.31,40.71 14.65,57.95 6.2,-5.63 12.82,-11.48 19.71,-17.39 -5.91,-12.46 -9.31,-26.31 -9.31,-40.97 0,-36.42 18.36,-66.5 53.08,-86.98 20.13,-11.88 42.99,-22.59 67.21,-31.86 -7.89,-1.59 -15.94,-2.4 -24.12,-2.4 z m 774.63,559.05 c 2.6,319.37 -255.57,581.31 -575.5,583.9 -149.49,1.21 -291.91,-54.25 -401.03,-156.16 -117.27,-109.52 -182.57,-258.1 -183.87,-418.35 -1.55,-191.08 91.13,-369.96 248.02,-479.54 14.89,-62.06 70.92,-108.39 137.75,-108.39 19.11,0 37.64,3.74 55.11,11.08 18.59,-5.9 37.67,-10.88 56.7,-14.87 -6.17,-17.01 -14.94,-33.02 -23.48,-47.53 l 13.89,-13.88 c 3.33,2.21 7.23,3.28 11.14,3.3 10.63,0 20.79,-7.26 20.71,-20.38 0,-10.66 -7.19,-20.64 -22.12,-20.63 -8.11,0.01 -18.59,4.28 -24.25,16.4 0,0 -3.76,-11.81 -3.76,-26.03 0,-43.06 46.79,-90.47 109.43,-110.31 62.99,19.69 109.6,67.25 109.6,110.31 0,14.22 -3.77,26.03 -3.77,26.03 -5.65,-12.12 -16.14,-16.39 -24.25,-16.4 -14.93,-0.01 -22.12,9.97 -22.12,20.63 -0.07,13.12 10.09,20.38 20.72,20.38 3.9,-0.02 7.81,-1.09 11.13,-3.3 l 12.76,12.68 0.33,0.18 0.52,0.68 c 0.06,-0.05 0.13,-0.06 0.18,-0.1 l 0.03,0.35 0.07,0.09 -0.06,0.11 v 0.02 c -6.27,15.01 -10.84,28.69 -14.06,41.75 103.87,14.24 191.57,58.35 261.37,131.72 l -0.11,0.14 c 144.05,109.5 227.45,275.19 228.92,456.12" /><path
             id="path166"
             style="fill:#ffffff;fill-opacity:1;fill-rule:nonzero;stroke:none"
             d="m 1698.87,2377.61 c 0,-8.29 -3.63,-17.04 -10.87,-24.96 -13.92,-15.21 -28.75,-16.6 -30.29,-16.56 l -4.2,16.05 c 2.32,0.62 13.22,2.85 20.95,11.31 3.5,3.83 5.32,7.91 5.32,11.5 0,3.82 -2.53,10.46 -10.4,10.46 -8.42,0 -22.49,-12.2 -36.91,-12.2 -5.54,0 -11.69,0.78 -18.11,6.67 -6.19,5.66 -9.06,12.88 -9.06,20.23 0,8.03 3.66,16.46 10.47,23.9 12.93,14.13 27.16,15.28 28.4,15.34 l 3.47,-15.76 c -1.63,-0.29 -12.21,-2.6 -18.77,-9.78 -3.38,-3.68 -5.17,-7.69 -5.17,-11.2 0,-3.82 2.42,-8.49 8.71,-8.57 6.93,-0.09 24.33,12.64 38.49,12.64 6.56,0 11.35,-1.17 17.99,-7.25 6.65,-6.08 9.98,-13.74 9.98,-21.82" /><path
             id="path168"
             style="fill:#ffffff;fill-opacity:1;fill-rule:nonzero;stroke:none"
             d="m 2172.98,2530.75 c 0,6.69 -1.52,13.68 -5.57,19.11 -4.2,5.64 -11.1,9.57 -19.27,9.57 -17.35,0 -30.04,-21.52 -30.04,-39.29 0,-16.5 11.13,-27.72 26.1,-27.72 19.62,0 28.78,25.51 28.78,38.33 z m -28.14,-55.79 c -24.67,0 -47.09,18.81 -47.09,47.09 0,25.25 16.93,54.56 47.69,54.56 25.02,0 48.17,-17.68 48.17,-46.12 0,-21.4 -14.44,-55.53 -48.77,-55.53" /><path
             id="path170"
             style="fill:#ffffff;fill-opacity:1;fill-rule:nonzero;stroke:none"
             d="m 2409.98,2287.75 c 16.99,0 40.58,14.71 40.58,34.5 0,13.64 -10.6,24.28 -24.17,24.28 -15.92,0 -40.16,-14.14 -40.16,-34.11 0,-10.65 8.14,-24.67 23.75,-24.67 z m 3.44,-19.64 c -29.47,0 -45.71,28.39 -45.71,47.44 0,28.88 31.09,50.95 55.38,50.95 26.46,0 45.89,-25.18 45.89,-47.99 0,-25.93 -27.08,-50.4 -55.56,-50.4" /><path
             id="path172"
             style="fill:#ffffff;fill-opacity:1;fill-rule:nonzero;stroke:none"
             d="m 2487.38,1956.11 c 17.17,0 29.75,10.5 29.75,25.91 0,18.4 -21.3,27.77 -37.75,27.77 -21.06,0 -29.59,-13.7 -29.59,-26.57 0,-20.15 24.69,-27.11 37.59,-27.11 z m -54.92,26.81 c 0,23.9 16.2,47.4 48.38,47.4 27.06,0 53.21,-16.68 53.21,-46.64 0,-24.6 -15.77,-48.25 -47.72,-48.25 -27.35,0 -53.87,17.26 -53.87,47.49" /><path
             id="path174"
             style="fill:#ffffff;fill-opacity:1;fill-rule:nonzero;stroke:none"
             d="m 2451.8,1858 c 0,-7.39 6.22,-13.27 13.13,-13.27 6.18,0 10.06,3.39 13.69,11.44 l 3.04,7.22 -23.93,11.25 -4,-8.93 c -1.33,-2.94 -1.93,-5.5 -1.93,-7.71 z m -56.15,10.78 28.79,-0.12 c 13.66,-0.11 14.7,3.23 17.92,10.36 l 0.96,2.12 -34.63,16.08 8.3,18.38 87.65,-40.46 -11.24,-25.21 c -7.69,-16.98 -14.25,-25.53 -30.32,-25.53 -10.33,0 -25.46,8.58 -25.35,24.36 0.02,2.42 0.37,5.02 1.15,7.79 -5.16,-8.96 -18.14,-7.71 -26.26,-7.71 l -25.93,0.1 8.96,19.84" /><path
             id="path176"
             style="fill:#ffffff;fill-opacity:1;fill-rule:nonzero;stroke:none"
             d="m 2388.3,1733.33 c 10.23,0 16.13,3.06 27.88,17.49 l 3.67,4.51 -49.87,40.58 -6.14,-7.53 c -6.01,-7.39 -9.12,-14.67 -9.12,-21.66 0,-9.32 4.61,-17.52 14.04,-25.21 6.8,-5.52 13.05,-8.18 19.54,-8.18 z m -51.57,28.4 c 0,19.8 9.17,30.58 20.8,44.89 l 12.56,15.41 75.09,-61.11 -16.87,-20.7 c -9.51,-11.7 -20.72,-26.09 -42.27,-26.09 -12.26,0 -23.02,5.68 -30.65,11.89 -9.54,7.75 -18.66,20.91 -18.66,35.71" /></g></g></g></g></svg>